<?xml version="1.0" encoding="UTF-8"?>
<svg xmlns="http://www.w3.org/2000/svg" xmlns:xlink="http://www.w3.org/1999/xlink" viewBox="0 0 160 160">
  <defs>
    <style>
      .cls-1 {
        fill: #8fed8c;
      }

      .cls-2 {
        fill: #4fb04d;
      }

      .cls-3 {
        fill: #fff;
      }

      .cls-4, .cls-5, .cls-6 {
        fill: none;
      }

      .cls-5 {
        stroke-width: .75px;
      }

      .cls-5, .cls-6 {
        stroke: #fff;
        stroke-miterlimit: 10;
      }

      .cls-7 {
        isolation: isolate;
      }

      .cls-8 {
        fill: #3e3e3e;
      }

      .cls-9 {
        mix-blend-mode: multiply;
      }

      .cls-10 {
        fill: #ccc;
      }

      .cls-11 {
        clip-path: url(#clippath);
      }

      .cls-6 {
        stroke-width: .25px;
      }
    </style>
    <clipPath id="clippath">
      <circle class="cls-4" cx="80.662" cy="77.96" r="55.915"/>
    </clipPath>
  </defs>
  <g class="cls-7">
    <g id="bg_planet" data-name="bg planet">
      <circle class="cls-8" cx="80.662" cy="77.96" r="55.915"/>
    </g>
    <g id="planet">
      <circle class="cls-3" cx="114.212" cy="91.415" r="7.131"/>
      <path class="cls-5" d="M104.658,88.22c-.961,3.075,17.732,11.151,18.804,6.635,1.072-4.517-17.452-10.962-18.804-6.635Z"/>
      <circle class="cls-3" cx="114.065" cy="59.476" r="2.078"/>
      <path class="cls-6" d="M111.749,61.28c.592.729,5.565-2.508,4.642-3.496s-5.474,2.471-4.642,3.496Z"/>
    </g>
    <g id="stars">
      <g class="cls-11">
        <g>
          <circle class="cls-3" cx="9.944" cy="109.936" r=".416"/>
          <circle class="cls-3" cx="1.384" cy="88.876" r=".439"/>
          <circle class="cls-3" cx="10.678" cy="95.84" r=".205"/>
          <circle class="cls-3" cx="9.36" cy="87.251" r=".242"/>
          <circle class="cls-3" cx="21.262" cy="96.481" r=".309"/>
          <circle class="cls-3" cx="3.682" cy="64.259" r=".547"/>
          <circle class="cls-3" cx="20.934" cy="82.719" r=".239"/>
          <circle class="cls-3" cx="31.762" cy="88.439" r=".191"/>
          <circle class="cls-3" cx="18.061" cy="59.612" r=".498"/>
          <circle class="cls-3" cx="20.016" cy="52.785" r=".454"/>
          <circle class="cls-3" cx="45.341" cy="78.316" r=".261"/>
          <circle class="cls-3" cx="29.086" cy="53.611" r=".452"/>
          <circle class="cls-3" cx="42.466" cy="63.338" r=".535"/>
          <circle class="cls-3" cx="46.565" cy="61.605" r=".291"/>
          <circle class="cls-3" cx="32.328" cy="37.679" r=".298"/>
          <circle class="cls-3" cx="38.03" cy="38.243" r=".551"/>
          <circle class="cls-3" cx="40.998" cy="33.165" r=".491"/>
          <circle class="cls-3" cx="63.263" cy="51.897" r=".532"/>
          <circle class="cls-3" cx="64.535" cy="45.81" r=".346"/>
          <circle class="cls-3" cx="77.392" cy="54.688" r=".402"/>
          <circle class="cls-3" cx="60.992" cy="29.699" r=".433"/>
          <circle class="cls-3" cx="66.591" cy="29.944" r=".401"/>
          <circle class="cls-3" cx="67.666" cy="25.401" r=".474"/>
          <circle class="cls-3" cx="90.614" cy="45.998" r=".36"/>
          <circle class="cls-3" cx="94.693" cy="42.252" r=".242"/>
          <circle class="cls-3" cx="91.795" cy="30.55" r=".184"/>
          <circle class="cls-3" cx="96.327" cy="30.394" r=".259"/>
          <circle class="cls-3" cx="103.233" cy="31.66" r=".281"/>
          <circle class="cls-3" cx="108.596" cy="24.964" r=".501"/>
          <circle class="cls-3" cx="112.324" cy="22.876" r=".207"/>
          <circle class="cls-3" cx="98.802" cy=".257" r=".337"/>
          <circle class="cls-3" cx="115.131" cy="5.108" r=".44"/>
        </g>
        <g>
          <circle class="cls-3" cx="18.442" cy="118.491" r=".362"/>
          <circle class="cls-3" cx="40.625" cy="145.252" r=".511"/>
          <circle class="cls-3" cx="28.633" cy="119.827" r=".527"/>
          <circle class="cls-3" cx="42.461" cy="133.286" r=".348"/>
          <circle class="cls-3" cx="42.331" cy="124.097" r=".456"/>
          <circle class="cls-3" cx="56.776" cy="137.138" r=".241"/>
          <circle class="cls-3" cx="64.633" cy="138.977" r=".201"/>
          <circle class="cls-3" cx="50.627" cy="111.992" r=".437"/>
          <circle class="cls-3" cx="56.367" cy="111.421" r=".543"/>
          <circle class="cls-3" cx="64.421" cy="114.138" r=".338"/>
          <circle class="cls-3" cx="70.989" cy="114.251" r=".485"/>
          <circle class="cls-3" cx="75.026" cy="114.136" r=".381"/>
          <circle class="cls-3" cx="70.346" cy="99.787" r=".249"/>
          <circle class="cls-3" cx="70.715" cy="90.544" r=".544"/>
          <circle class="cls-3" cx="92.615" cy="112.416" r=".477"/>
          <circle class="cls-3" cx="89.873" cy="102.384" r=".481"/>
          <circle class="cls-3" cx="102.653" cy="112.786" r=".164"/>
          <circle class="cls-3" cx="84.597" cy="80.226" r=".338"/>
          <circle class="cls-3" cx="89.158" cy="83.505" r=".311"/>
          <circle class="cls-3" cx="113.08" cy="105.165" r=".452"/>
          <circle class="cls-3" cx="115.974" cy="102.588" r=".531"/>
          <circle class="cls-3" cx="107.745" cy="85.805" r=".277"/>
          <circle class="cls-3" cx="108.258" cy="80.764" r=".233"/>
          <circle class="cls-3" cx="119.769" cy="89.01" r=".393"/>
          <circle class="cls-3" cx="100.754" cy="59.48" r=".486"/>
          <circle class="cls-3" cx="120.685" cy="74.884" r=".394"/>
          <circle class="cls-3" cx="124.88" cy="72.372" r=".427"/>
          <circle class="cls-3" cx="134.414" cy="78.266" r=".455"/>
          <circle class="cls-3" cx="115.743" cy="48.269" r=".322"/>
          <circle class="cls-3" cx="140.059" cy="71.498" r=".258"/>
          <circle class="cls-3" cx="129.993" cy="52.974" r=".474"/>
          <circle class="cls-3" cx="150.066" cy="68.007" r=".351"/>
          <circle class="cls-3" cx="146.2" cy="57.048" r=".459"/>
          <circle class="cls-3" cx="137.968" cy="40.392" r=".204"/>
          <circle class="cls-3" cx="136.258" cy="31.413" r=".307"/>
          <circle class="cls-3" cx="156.722" cy="49.329" r=".203"/>
          <circle class="cls-3" cx="156.115" cy="41.317" r=".446"/>
          <circle class="cls-3" cx="2.979" cy="109.569" r=".486"/>
          <circle class="cls-3" cx="22.91" cy="124.973" r=".394"/>
          <circle class="cls-3" cx="27.105" cy="122.461" r=".427"/>
          <circle class="cls-3" cx="36.639" cy="128.355" r=".455"/>
          <circle class="cls-3" cx="17.968" cy="98.359" r=".322"/>
          <circle class="cls-3" cx="42.283" cy="121.588" r=".258"/>
          <circle class="cls-3" cx="32.218" cy="103.063" r=".474"/>
          <circle class="cls-3" cx="52.291" cy="118.097" r=".351"/>
          <circle class="cls-3" cx="48.425" cy="107.137" r=".459"/>
          <circle class="cls-3" cx="40.193" cy="90.481" r=".204"/>
          <circle class="cls-3" cx="38.482" cy="81.502" r=".307"/>
          <circle class="cls-3" cx="58.947" cy="99.418" r=".203"/>
          <circle class="cls-3" cx="58.34" cy="91.406" r=".446"/>
        </g>
      </g>
    </g>
    <g id="dna">
      <g>
        <path class="cls-4" d="M40.816,22.298l-26.036,18.582c1.063.667,2.215,1.189,3.443,1.591l22.918-16.357c.038-1.306-.059-2.58-.325-3.816Z"/>
        <path class="cls-4" d="M100.794,117.072l-16.006,11.423c-.287,1.462-.465,2.931-.498,4.404l20.887-14.908c-1.423-.434-2.889-.729-4.383-.92Z"/>
        <path class="cls-4" d="M40.668,21.669c-.397-1.493-1.055-2.928-2.037-4.294l-27.602,19.975c.402.567.842,1.069,1.299,1.543l26.92-19.213,1.42,1.99Z"/>
        <path class="cls-4" d="M40.642,30.209l-18.446,13.165c1.956.279,4.031.382,6.18.394l10.569-7.543c.702-2.05,1.301-4.061,1.697-6.016Z"/>
        <path class="cls-4" d="M114.272,123.782l-25.849,18.449-1.767-2.477,25.385-18.118c-1.119-.921-2.291-1.683-3.509-2.301l-24.017,17.142c.451,2.951,1.595,5.916,3.734,8.887l27.695-19.492c-.536-.758-1.095-1.449-1.671-2.091Z"/>
        <path class="cls-4" d="M65.839,55.838l-27.317,19.497-1.768-2.477,27.595-19.695c-.153-.236-.287-.475-.453-.709-.62-.875-1.29-1.642-1.983-2.358l-27.68,19.756c.428.817.923,1.628,1.499,2.429,1.821,2.535,4.004,4.381,6.427,5.758l25.048-17.878c-.293-1.465-.729-2.91-1.369-4.324Z"/>
        <path class="cls-4" d="M56.488,46.183l-24.257,17.313c.153,1.172.411,2.334.788,3.486l26.549-18.949c-.98-.721-2.008-1.334-3.08-1.85Z"/>
        <path class="cls-4" d="M67.627,63.601l-22.313,15.926c1.599.613,3.27,1.082,5,1.429l17.088-12.196c.218-1.738.303-3.459.225-5.159Z"/>
        <path class="cls-4" d="M36.21,43.594c-.612,1.616-1.213,3.245-1.761,4.879l6.964-4.97c-1.731-.005-3.47.036-5.202.091Z"/>
        <path class="cls-4" d="M33.745,43.674c.818-.027,1.64-.054,2.465-.08.292-.772.586-1.54.878-2.305l-3.342,2.386Z"/>
        <path class="cls-4" d="M66.64,73.041l-11.993,8.56c1.692.18,3.412.298,5.146.375l5.552-3.962c.484-1.66.927-3.32,1.296-4.973Z"/>
        <path class="cls-4" d="M75.877,82.778l-15.03,10.727c-.427,1.999-.72,3.961-.804,5.875l21.585-15.406c-1.816-.557-3.742-.939-5.751-1.196Z"/>
        <path class="cls-4" d="M46.382,43.694l-13.326,9.511c-.548,2.232-.917,4.461-.989,6.67l21.011-14.996c-2.136-.63-4.385-.994-6.695-1.185Z"/>
        <path class="cls-4" d="M64.804,82.138l-.923.659c-.651,2.064-1.298,4.116-1.877,6.145l9.208-6.572c-2.1-.119-4.246-.177-6.407-.232Z"/>
        <path class="cls-4" d="M93.174,105.186l-17.179,12.261c2.373.197,4.876.136,7.443-.011l7.236-5.165c.99-2.397,1.883-4.76,2.499-7.085Z"/>
        <path class="cls-4" d="M93.721,96.252l-25.818,18.427-1.767-2.477,26.609-18.991c-.41-.911-.922-1.814-1.563-2.707-.036-.051-.078-.093-.115-.143l-27.706,19.774-1.768-2.476,27.436-19.582c-1.216-1.133-2.571-2.038-4.033-2.768l-24.826,17.719c.326,2.74,1.213,5.352,2.939,7.787,2.312,3.262,5.273,5.026,8.64,5.925l22.204-15.847c.134-1.568.075-3.116-.231-4.64Z"/>
        <path class="cls-4" d="M89.234,117.037l-.826.59c-.868,2.066-1.702,4.152-2.391,6.255l9.956-7.106c-2.23-.015-4.49.107-6.739.262Z"/>
        <path class="cls-3" d="M40.668,21.669l-1.42-1.99-26.92,19.213c.749.776,1.569,1.433,2.452,1.988l26.036-18.582c-.045-.211-.093-.421-.148-.629Z"/>
        <path class="cls-3" d="M41.141,26.114l-22.918,16.357c1.253.41,2.581.704,3.973.903l18.446-13.165c.283-1.395.461-2.762.499-4.094Z"/>
        <path class="cls-3" d="M38.945,36.225l-10.569,7.543c1.75.01,3.547-.035,5.368-.094l3.342-2.386c.651-1.708,1.288-3.399,1.858-5.064Z"/>
        <path class="cls-3" d="M41.412,43.503l-6.964,4.97c-.528,1.575-1.005,3.154-1.393,4.732l13.326-9.511c-1.633-.135-3.296-.186-4.97-.191Z"/>
        <path class="cls-3" d="M53.077,44.88l-21.011,14.996c-.04,1.214.009,2.421.166,3.62l24.257-17.313c-1.097-.527-2.236-.957-3.411-1.303Z"/>
        <path class="cls-3" d="M59.568,48.033l-26.549,18.949c.316.966.718,1.923,1.214,2.871l27.68-19.756c-.745-.769-1.525-1.46-2.345-2.064Z"/>
        <path class="cls-3" d="M38.522,75.335l27.317-19.497c-.409-.905-.917-1.795-1.49-2.675l-27.595,19.695,1.768,2.477Z"/>
        <path class="cls-3" d="M67.208,60.162l-25.048,17.878c1.011.575,2.064,1.068,3.154,1.487l22.313-15.926c-.053-1.158-.192-2.305-.419-3.439Z"/>
        <path class="cls-3" d="M67.402,68.76l-17.088,12.196c1.412.283,2.861.489,4.332.646l11.993-8.56c.319-1.434.584-2.863.762-4.282Z"/>
        <path class="cls-3" d="M64.094,82.12c-.071.226-.142.451-.213.677l.923-.659c-.237-.006-.473-.012-.711-.018Z"/>
        <path class="cls-3" d="M59.793,81.977c1.43.064,2.867.106,4.301.143.429-1.366.852-2.735,1.251-4.105l-5.552,3.962Z"/>
        <path class="cls-3" d="M71.212,82.37l-9.208,6.572c-.439,1.537-.836,3.061-1.157,4.564l15.03-10.727c-1.515-.194-3.077-.318-4.665-.408Z"/>
        <path class="cls-3" d="M81.628,83.975l-21.585,15.406c-.055,1.238-.015,2.455.127,3.648l24.826-17.719c-1.068-.532-2.192-.974-3.367-1.335Z"/>
        <path class="cls-3" d="M63.36,110.135l27.706-19.774c-.625-.851-1.308-1.605-2.037-2.284l-27.436,19.582,1.768,2.476Z"/>
        <path class="cls-3" d="M67.903,114.679l25.818-18.427c-.206-1.024-.526-2.038-.977-3.041l-26.609,18.991,1.767,2.477Z"/>
        <path class="cls-3" d="M93.952,100.892l-22.204,15.847c1.355.362,2.776.585,4.247.707l17.179-12.261c.383-1.447.658-2.879.778-4.293Z"/>
        <path class="cls-3" d="M88.639,117.078c-.077.183-.155.366-.232.549l.826-.59c-.198.014-.397.027-.595.041Z"/>
        <path class="cls-3" d="M83.438,117.435c1.712-.098,3.452-.234,5.201-.357.683-1.616,1.38-3.219,2.036-4.807l-7.236,5.165Z"/>
        <path class="cls-3" d="M95.972,116.775l-9.956,7.106c-.502,1.53-.925,3.069-1.228,4.615l16.006-11.423c-1.58-.202-3.193-.286-4.821-.297Z"/>
        <path class="cls-3" d="M105.177,117.992l-20.887,14.908c-.027,1.19.042,2.383.224,3.578l24.017-17.142c-1.086-.551-2.206-.993-3.355-1.344Z"/>
        <path class="cls-3" d="M88.423,142.231l25.849-18.449c-.716-.799-1.461-1.511-2.232-2.145l-25.385,18.118,1.767,2.477Z"/>
      </g>
      <g class="cls-9">
        <path class="cls-10" d="M88.201,132.432c-.327,1.787-.437,3.501-.287,5.123.157,1.621.532,3.164,1.224,4.643.419.82.299,1.834-.04,2.877-.379,1.044-1.124,2.16-2.224,2.959l-.36.259c-1.1.799-2.392,1.078-3.655.769-1.281-.273-2.416-1.257-3.08-2.648-1.139-2.489-1.814-5.249-2.045-7.967-.232-2.727-.007-5.403.471-7.903.272-1.42,1.136-2.517,2.213-3.126,1.095-.602,2.413-.721,3.688-.317l.417.131c1.28.405,2.284,1.236,2.923,2.184.657.952.939,2.011.756,3.017Z"/>
        <path class="cls-10" d="M95.482,112.464c-1.566,4.514-3.458,8.491-4.963,12.354-.415,1.082-1.28,1.86-2.347,2.289-1.088.428-2.364.523-3.65.123l-.417-.131c-1.274-.396-2.296-1.27-2.831-2.361-.553-1.103-.637-2.418-.159-3.635,1.706-4.254,3.582-8.171,4.895-11.904.169-.52.467-.975.843-1.358.357-.377.81-.689,1.328-.93,1.014-.472,2.27-.686,3.567-.419l.421.089c1.287.264,2.361,1.035,2.979,2.13.301.537.496,1.152.566,1.804.057.637-.02,1.296-.23,1.949Z"/>
      </g>
      <g class="cls-9">
        <path class="cls-10" d="M63.66,101.954c.212-3.562,1.333-7.524,2.564-11.576.713-2.3-.77-4.905-3.373-5.711l-.423-.132c-2.595-.804-5.296.401-6.044,2.812-1.279,4.287-2.653,8.777-2.999,13.953-.087,1.464.472,2.846,1.442,3.733.928.892,2.267,1.267,3.606,1.078l.439-.059c1.354-.191,2.475-.797,3.348-1.522.83-.724,1.384-1.579,1.44-2.576Z"/>
        <path class="cls-10" d="M70.647,114.283c-1.45-.503-2.621-1.213-3.636-2.201-1.008-.985-1.915-2.303-2.477-3.657-.129-.402-.411-.721-.766-1.015-.325-.306-.763-.567-1.279-.784-.992-.445-2.261-.749-3.617-.573l-.439.059c-1.34.173-2.513.867-3.202,2.009-.323.567-.53,1.241-.599,1.972-.038.725.109,1.503.386,2.264,1.123,2.673,2.714,5.039,4.816,7.108,2.101,2.069,4.77,3.641,7.445,4.549,1.521.532,3.031.288,4.095-.438,1.084-.695,1.744-1.892,1.91-3.235l.054-.44c.167-1.356-.174-2.607-.676-3.622-.528-.99-1.211-1.709-2.015-1.994Z"/>
      </g>
      <g class="cls-9">
        <path class="cls-10" d="M90.607,114.508c-4.582.216-8.899.701-12.844.714-.545-.011-1.07.124-1.553.36-.471.22-.912.556-1.308.98-.775.83-1.389,1.984-1.563,3.338l-.054.44c-.173,1.343.203,2.646,1.038,3.61.411.472.93.864,1.526,1.148.585.267,1.236.41,1.923.421,4.789-.029,9.163-.542,13.301-.724,1.157-.045,2.171-.624,2.924-1.51.757-.906,1.262-2.101,1.303-3.467l.011-.443c.04-1.353-.454-2.623-1.313-3.501-.864-.897-2.082-1.418-3.39-1.366Z"/>
        <path class="cls-10" d="M114.992,121.552c-1.98-1.893-4.368-3.437-6.865-4.548-2.505-1.114-5.111-1.78-7.634-2.149-1.433-.21-2.754.254-3.682,1.086-.927.85-1.469,2.076-1.502,3.433l-.011.443c-.033,1.363.425,2.6,1.113,3.523.685.941,1.593,1.555,2.601,1.704,3.602.528,6.567,1.782,8.929,4.012.641.659,1.644.871,2.742.888,1.112-.021,2.41-.363,3.524-1.144l.362-.256c1.113-.781,1.797-1.912,1.918-3.209.16-1.302-.398-2.699-1.495-3.783Z"/>
      </g>
      <g id="_1-top_shadow" data-name="1-top shadow" class="cls-9">
        <path class="cls-10" d="M39.339,47.088c-1.531,4.055-2.952,7.961-3.668,11.72-.217,1.06-.802,1.909-1.697,2.549-.848.623-2.001,1.048-3.238.996l-.403-.018c-1.237-.052-2.325-.625-3.067-1.614-.701-.964-1.049-2.338-.763-3.695.966-4.82,2.625-9.13,4.192-13.225.896-2.309,3.423-3.427,5.712-2.604l.373.137c2.292.824,3.43,3.457,2.561,5.754Z"/>
        <path class="cls-10" d="M43.383,22.901c.84,2.826.907,5.692.621,8.27-.289,2.594-.896,4.971-1.58,7.222-.791,2.56-3.365,3.791-5.646,2.942l-.373-.137c-2.286-.85-3.443-3.361-2.761-5.51.601-1.916,1.072-3.791,1.276-5.538.207-1.75.13-3.336-.27-4.705-.224-.766-.071-1.594.301-2.526.355-.903,1.001-1.927,1.967-2.632l.317-.228c.966-.705,2.146-.883,3.363-.419,1.182.46,2.313,1.658,2.784,3.26Z"/>
      </g>
      <g>
        <path class="cls-1" d="M40.893,44.289c-1.531,4.055-2.952,7.961-3.668,11.72-.217,1.06-.802,1.909-1.697,2.549-.848.623-2.001,1.048-3.238.996l-.403-.018c-1.237-.052-2.325-.625-3.067-1.614-.701-.964-1.049-2.338-.763-3.695.966-4.82,2.625-9.13,4.192-13.225.896-2.309,3.423-3.427,5.712-2.604l.373.137c2.292.824,3.43,3.457,2.561,5.754Z"/>
        <path class="cls-2" d="M44.937,20.102c.84,2.826.907,5.692.621,8.27-.289,2.594-.896,4.971-1.58,7.222-.791,2.56-3.365,3.791-5.646,2.942l-.373-.137c-2.286-.85-3.443-3.361-2.761-5.51.601-1.916,1.072-3.791,1.276-5.538.207-1.75.13-3.336-.27-4.705-.224-.766-.071-1.594.301-2.526.355-.903,1.001-1.927,1.967-2.632l.317-.228c.966-.705,2.146-.883,3.363-.419,1.182.46,2.313,1.658,2.784,3.26Z"/>
      </g>
      <g>
        <path class="cls-1" d="M90.65,142.28c-.38,1.04-1.12,2.16-2.22,2.95l-.36.26c-1.1.8-2.39,1.08-3.66.77-1.28-.27-2.41-1.25-3.08-2.65-1.14-2.49-1.81-5.24-2.04-7.96-.23-2.73-.01-5.41.47-7.91.27-1.42,1.13-2.51,2.21-3.12,1.1-.6,2.41-.72,3.69-.32l.42.13c1.28.41,2.28,1.24,2.92,2.19.66.95.94,2.01.75,3.01-.32,1.79-.43,3.5-.28,5.13.16,1.62.53,3.16,1.22,4.64.42.82.3,1.83-.04,2.88Z"/>
        <path class="cls-2" d="M97.27,107.72c.05.63-.02,1.29-.23,1.95-1.57,4.51-3.46,8.49-4.97,12.35-.41,1.08-1.28,1.86-2.34,2.29-1.09.43-2.37.52-3.65.12l-.42-.13c-1.27-.4-2.3-1.27-2.83-2.36-.55-1.1-.64-2.42-.16-3.64,1.7-4.25,3.58-8.17,4.89-11.9.17-.52.47-.97.85-1.36.09-.1.19-.19.3-.29.3-.24.65-.46,1.02-.64,1.02-.47,2.27-.68,3.57-.42l.42.09c1.04.22,1.93.76,2.55,1.53.17.19.31.39.43.6.3.54.5,1.15.57,1.81Z"/>
      </g>
      <g class="cls-9">
        <path class="cls-10" d="M90.607,114.508c-4.582.216-8.899.701-12.844.714-.545-.011-1.07.124-1.553.36-.471.22-.912.556-1.308.98-.775.83-1.389,1.984-1.563,3.338l-.054.44c-.173,1.343.203,2.646,1.038,3.61.411.472.93.864,1.526,1.148.585.267,1.236.41,1.923.421,4.789-.029,9.163-.542,13.301-.724,1.157-.045,2.171-.624,2.924-1.51.757-.906,1.262-2.101,1.303-3.467l.011-.443c.04-1.353-.454-2.623-1.313-3.501-.864-.897-2.082-1.418-3.39-1.366Z"/>
        <path class="cls-10" d="M114.992,121.552c-1.98-1.893-4.368-3.437-6.865-4.548-2.505-1.114-5.111-1.78-7.634-2.149-1.433-.21-2.754.254-3.682,1.086-.927.85-1.469,2.076-1.502,3.433l-.011.443c-.033,1.363.425,2.6,1.113,3.523.685.941,1.593,1.555,2.601,1.704,3.602.528,6.567,1.782,8.929,4.012.641.659,1.644.871,2.742.888,1.112-.021,2.41-.363,3.524-1.144l.362-.256c1.113-.781,1.797-1.912,1.918-3.209.16-1.302-.398-2.699-1.495-3.783Z"/>
      </g>
      <g class="cls-9">
        <path class="cls-10" d="M25.281,41.391c-3.979-.098-7.57-.747-9.685-2.314-.602-.432-1.435-.47-2.5-.334-1.03.131-2.325.5-3.439,1.278l-.362.256c-1.114.778-1.783,1.926-1.801,3.317-.011,1.355.753,2.899,2.165,3.895,2.486,1.765,5.256,2.778,7.84,3.349,2.602.574,5.079.765,7.451.844,2.704.074,4.704-2.198,4.636-4.914l-.009-.443c-.068-2.721-2.068-4.87-4.295-4.933Z"/>
        <path class="cls-10" d="M47.831,41.653c-4.926-.675-9.567-.52-13.953-.385-2.477.086-4.341,2.337-4.303,5.056l.009.443c.039,2.722,2.172,4.878,4.625,4.792,4.329-.145,8.458-.233,12.193.291,1.058.133,2.042-.202,2.95-.923.874-.683,1.68-1.742,2.068-3.046l.125-.425c.388-1.303.229-2.626-.456-3.733-.672-1.059-1.868-1.892-3.258-2.069Z"/>
      </g>
      <g class="cls-9">
        <path class="cls-10" d="M69.052,56.679c-1.144-2.519-2.649-4.783-4.482-6.83-1.832-2.059-4.114-3.798-6.543-5.067-1.378-.721-2.892-.753-4.066-.2-1.183.513-2.034,1.563-2.415,2.874l-.125.425c-.377,1.3-.262,2.608.07,3.688.362,1.053.912,1.896,1.718,2.313,1.434.752,2.687,1.698,3.754,2.906,1.072,1.204,2.011,2.609,2.677,4.066.158.427.443.775.831,1.07.362.305.794.569,1.321.77,1.067.393,2.304.635,3.657.371l.435-.086c1.316-.256,2.494-1.025,3.073-2.177.297-.573.499-1.246.526-1.954,0-.701-.141-1.447-.43-2.169Z"/>
        <path class="cls-10" d="M68.88,81.74c1.248-4.374,2.368-9.108,2.368-14.311-.026-.74-.154-1.435-.465-2.057-.311-.622-.729-1.154-1.22-1.559-1.024-.82-2.355-1.104-3.681-.834l-.435.086c-1.339.272-2.444.965-3.228,1.742-.811.799-1.266,1.684-1.268,2.681.011,3.547-.815,7.426-1.972,11.423-.643,2.248.849,4.807,3.447,5.623l.423.132c2.592.815,5.314-.433,6.03-2.927Z"/>
      </g>
      <g>
        <g>
          <path class="cls-1" d="M26.835,38.591c-3.979-.098-7.57-.747-9.685-2.314-.602-.432-1.435-.47-2.5-.334-1.03.131-2.325.5-3.439,1.278l-.362.256c-1.114.778-1.783,1.926-1.801,3.317-.011,1.355.753,2.899,2.165,3.895,2.486,1.765,5.256,2.778,7.84,3.349,2.602.574,5.079.765,7.451.844,2.704.074,4.704-2.198,4.636-4.914l-.009-.443c-.068-2.721-2.068-4.87-4.295-4.933Z"/>
          <path class="cls-2" d="M49.385,38.854c-4.926-.675-9.567-.52-13.953-.385-2.477.086-4.341,2.337-4.303,5.056l.009.443c.039,2.722,2.172,4.878,4.625,4.792,4.329-.145,8.458-.233,12.193.291,1.058.133,2.042-.202,2.95-.923.874-.683,1.68-1.742,2.068-3.046l.125-.425c.388-1.303.229-2.626-.456-3.733-.672-1.059-1.868-1.892-3.258-2.069Z"/>
        </g>
        <g>
          <path class="cls-1" d="M70.606,53.88c-1.144-2.519-2.649-4.783-4.482-6.83-1.832-2.059-4.114-3.798-6.543-5.067-1.378-.721-2.892-.753-4.066-.2-1.183.513-2.034,1.563-2.415,2.874l-.125.425c-.377,1.3-.262,2.608.07,3.688.362,1.053.912,1.896,1.718,2.313,1.434.752,2.687,1.698,3.754,2.906,1.072,1.204,2.011,2.609,2.677,4.066.158.427.443.775.831,1.07.362.305.794.569,1.321.77,1.067.393,2.304.635,3.657.371l.435-.086c1.316-.256,2.494-1.025,3.073-2.177.297-.573.499-1.246.526-1.954,0-.701-.141-1.447-.43-2.169Z"/>
          <path class="cls-2" d="M70.434,78.941c1.248-4.374,2.368-9.108,2.368-14.311-.026-.74-.154-1.435-.465-2.057-.311-.622-.729-1.154-1.22-1.559-1.024-.82-2.355-1.104-3.681-.834l-.435.086c-1.339.272-2.444.965-3.228,1.742-.811.799-1.266,1.684-1.268,2.681.011,3.547-.815,7.426-1.972,11.423-.643,2.248.849,4.807,3.447,5.623l.423.132c2.592.815,5.314-.433,6.03-2.927Z"/>
        </g>
        <g>
          <path class="cls-1" d="M65.214,99.155c.212-3.562,1.333-7.524,2.564-11.576.713-2.3-.77-4.905-3.373-5.711l-.423-.132c-2.595-.804-5.296.401-6.044,2.812-1.279,4.287-2.653,8.777-2.999,13.953-.087,1.464.472,2.846,1.442,3.733.928.892,2.267,1.267,3.606,1.078l.439-.059c1.354-.191,2.475-.797,3.348-1.522.83-.724,1.384-1.579,1.44-2.576Z"/>
          <path class="cls-2" d="M72.201,111.483c-1.45-.503-2.621-1.213-3.636-2.201-1.008-.985-1.915-2.303-2.477-3.657-.129-.402-.411-.721-.766-1.015-.325-.306-.763-.567-1.279-.784-.992-.445-2.261-.749-3.617-.573l-.439.059c-1.34.173-2.513.867-3.202,2.009-.323.567-.53,1.241-.599,1.972-.038.725.109,1.503.386,2.264,1.123,2.673,2.714,5.039,4.816,7.108,2.101,2.069,4.77,3.641,7.445,4.549,1.521.532,3.031.288,4.095-.438,1.084-.695,1.744-1.892,1.91-3.235l.054-.44c.167-1.356-.174-2.607-.676-3.622-.528-.99-1.211-1.709-2.015-1.994Z"/>
        </g>
        <g>
          <path class="cls-1" d="M92.161,111.708c-4.582.216-8.899.701-12.844.714-.545-.011-1.07.124-1.553.36-.471.22-.912.556-1.308.98-.775.83-1.389,1.984-1.563,3.338l-.054.44c-.173,1.343.203,2.646,1.038,3.61.411.472.93.864,1.526,1.148.585.267,1.236.41,1.923.421,4.789-.029,9.163-.542,13.301-.724,1.157-.045,2.171-.624,2.924-1.51.757-.906,1.262-2.101,1.303-3.467l.011-.443c.04-1.353-.454-2.623-1.313-3.501-.864-.897-2.082-1.418-3.39-1.366Z"/>
          <path class="cls-2" d="M116.546,118.753c-1.98-1.893-4.368-3.437-6.865-4.548-2.505-1.114-5.111-1.78-7.634-2.149-1.433-.21-2.754.254-3.682,1.086-.927.85-1.469,2.076-1.502,3.433l-.011.443c-.033,1.363.425,2.6,1.113,3.523.685.941,1.593,1.555,2.601,1.704,3.602.528,6.567,1.782,8.929,4.012.641.659,1.644.871,2.742.888,1.112-.021,2.41-.363,3.524-1.144l.362-.256c1.113-.781,1.797-1.912,1.918-3.209.16-1.302-.398-2.699-1.495-3.783Z"/>
        </g>
      </g>
      <g class="cls-9">
        <path class="cls-10" d="M97.43,102.1c.01,1.3-.45,2.42-1.16,3.21-.62-.77-1.51-1.31-2.55-1.53l-.42-.09c-1.3-.26-2.55-.05-3.57.42-.37.18-.72.4-1.02.64l-.06-.06c-.74-.82-1.17-1.7-1.18-2.57.01-1.56-.28-2.93-.89-4.24-.61-1.3-1.57-2.61-2.69-3.61-.34-.26-.56-.63-.73-1.06-.2-.4-.31-.89-.36-1.43-.13-1.06-.03-2.31.55-3.48l.19-.38c.57-1.15,1.59-1.99,2.86-2.24.63-.11,1.32-.08,2.03.1.69.2,1.36.59,1.99,1.1,2.14,1.9,3.86,4.15,5.12,6.78,1.27,2.63,1.89,5.63,1.89,8.44Z"/>
        <path class="cls-10" d="M66.457,80.169c2.233.067,4.517.167,6.865.391,2.345.223,4.769.576,7.249,1.253,1.403.386,2.527,1.331,3.061,2.496.553,1.125.495,2.463-.091,3.613l-.189.379c-.593,1.164-1.507,1.977-2.467,2.524-.944.508-1.934.721-2.905.443-3.471-.982-7.599-1.224-11.837-1.392-2.41-.083-4.392-2.208-4.313-4.767l.012-.417c.078-2.551,2.094-4.589,4.615-4.522Z"/>
      </g>
      <g class="cls-9">
        <path class="cls-10" d="M46.079,78.091c3.412,1.167,7.38,1.631,11.549,1.822,2.344.112,4.282,2.216,4.214,4.778l-.012.417c-.068,2.555-2.129,4.585-4.711,4.441-4.529-.255-9.339-.751-14.199-2.437-.683-.264-1.293-.601-1.78-1.078-.487-.478-.858-1.02-1.092-1.586-.462-1.173-.341-2.443.293-3.521l.206-.355c.641-1.09,1.611-1.829,2.582-2.256.999-.446,1.988-.547,2.949-.224Z"/>
        <path class="cls-10" d="M35.409,66.066c.26,1.647.772,3.189,1.598,4.628.819,1.442,1.874,2.815,3.074,3.944.363.295.618.676.791,1.128.191.431.324.906.367,1.444.073,1.086-.051,2.254-.69,3.36l-.206.355c-.619,1.073-1.681,1.858-2.91,1.98-.614.069-1.293.022-1.951-.193-.642-.238-1.284-.616-1.863-1.117-1.972-1.875-3.592-4.006-4.903-6.368-1.322-2.364-2.2-5.038-2.596-7.701-.226-1.511.193-2.924,1.02-3.844.793-.94,1.951-1.406,3.193-1.346l.403.018c1.23.06,2.32.591,3.155,1.269.801.696,1.376,1.518,1.517,2.443Z"/>
      </g>
      <g>
        <path class="cls-1" d="M91.973,84.076c2.146,1.905,3.857,4.154,5.125,6.785,1.269,2.63,1.889,5.634,1.886,8.437.013,1.599-.686,2.941-1.688,3.713-.98.8-2.29,1.043-3.574.771l-.421-.089c-1.297-.274-2.333-.996-3.1-1.8-.735-.82-1.17-1.706-1.174-2.572.003-1.556-.285-2.925-.895-4.236-.61-1.303-1.57-2.613-2.685-3.611-.343-.26-.562-.632-.735-1.06-.194-.404-.311-.893-.362-1.438-.124-1.054-.025-2.305.555-3.475l.189-.379c.572-1.157,1.584-1.992,2.862-2.244.628-.107,1.321-.074,2.024.101.688.203,1.367.593,1.991,1.096Z"/>
        <path class="cls-2" d="M68.011,77.369c2.233.067,4.517.167,6.865.391,2.345.223,4.769.576,7.249,1.253,1.403.386,2.527,1.331,3.061,2.496.553,1.125.495,2.463-.091,3.613l-.189.379c-.593,1.164-1.507,1.977-2.467,2.524-.944.508-1.934.721-2.905.443-3.471-.982-7.599-1.224-11.837-1.392-2.41-.083-4.392-2.208-4.313-4.767l.012-.417c.078-2.551,2.094-4.589,4.615-4.522Z"/>
      </g>
      <g>
        <path class="cls-1" d="M47.633,75.292c3.412,1.167,7.38,1.631,11.549,1.822,2.344.112,4.282,2.216,4.214,4.778l-.012.417c-.068,2.555-2.129,4.585-4.711,4.441-4.529-.255-9.339-.751-14.199-2.437-.683-.264-1.293-.601-1.78-1.078-.487-.478-.858-1.02-1.092-1.586-.462-1.173-.341-2.443.293-3.521l.206-.355c.641-1.09,1.611-1.829,2.582-2.256.999-.446,1.988-.547,2.949-.224Z"/>
        <path class="cls-2" d="M36.963,63.266c.26,1.647.772,3.189,1.598,4.628.819,1.442,1.874,2.815,3.074,3.944.363.295.618.676.791,1.128.191.431.324.906.367,1.444.073,1.086-.051,2.254-.69,3.36l-.206.355c-.619,1.073-1.681,1.858-2.91,1.98-.614.069-1.293.022-1.951-.193-.642-.238-1.284-.616-1.863-1.117-1.972-1.875-3.592-4.006-4.903-6.368-1.322-2.364-2.2-5.038-2.596-7.701-.226-1.511.193-2.924,1.02-3.844.793-.94,1.951-1.406,3.193-1.346l.403.018c1.23.06,2.32.591,3.155,1.269.801.696,1.376,1.518,1.517,2.443Z"/>
      </g>
      <path class="cls-3" d="M53.934,46.253c-.522-2.973-3.357-4.965-6.33-4.443,2.973-.522,4.959-3.356,4.437-6.329.522,2.973,3.356,4.959,6.329,4.437-2.973.522-4.958,3.362-4.436,6.334Z"/>
      <path class="cls-3" d="M56.133,100.092c-1.232-1.763-3.663-2.197-5.426-.965,1.763-1.232,2.194-3.661.962-5.424,1.232,1.763,3.661,2.194,5.424.961-1.763,1.232-2.191,3.664-.959,5.427Z"/>
      <path class="cls-3" d="M93.075,143.282c-1.077-.815-2.613-.603-3.427.473.815-1.077.602-2.611-.475-3.425,1.077.815,2.611.602,3.425-.475-.815,1.077-.6,2.612.477,3.427Z"/>
    </g>
    <g id="planets">
      <path class="cls-3" d="M77.092,40.311c-.682-1.162-2.178-1.554-3.34-.872,1.162-.682,1.552-2.177.87-3.339.682,1.162,2.177,1.552,3.339.87-1.162.682-1.551,2.179-.869,3.341Z"/>
      <path class="cls-3" d="M82.538,61.557c-.658-.606-1.684-.564-2.289.094.606-.658.563-1.683-.095-2.288.658.606,1.683.563,2.288-.095-.606.658-.562,1.684.096,2.289Z"/>
      <path class="cls-3" d="M106.415,40.622c-1.067.112-1.844,1.069-1.732,2.136-.112-1.067-1.069-1.842-2.136-1.73,1.067-.112,1.842-1.069,1.73-2.136.112,1.067,1.071,1.842,2.138,1.73Z"/>
      <path class="cls-3" d="M80.154,38.579c-.547-.132-1.098.205-1.23.752.132-.547-.205-1.097-.752-1.229.547.132,1.097-.205,1.229-.752-.132.547.206,1.098.753,1.229Z"/>
      <path class="cls-3" d="M96.578,66.413c-2.005-.496-4.756-.625-6.346.81-.66.741-.373,1.978.154,2.668.56.71,1.547.966,2.449.881,1.561-.112,2.606-1.302,1.416-2.447-.625-.458-2.493-.397-1.998.725.062.077.194.155.345.184.136.048.335-.029.24.036-.074.042-.113.284-.08.3-.245-.311-.385-.717-.005-1.054.947-.666,1.816,1.129,1.007,1.759-.905.658-1.812.421-2.545-.203-.671-.68-.709-1.686-.262-2.506.644-1.089,2.085-1.285,3.156-1.078,2.673.485,3.295,4.097.817,5.419-1.857.995-4.424.501-5.501-1.397-.633-1.178-.608-2.777.423-3.668.982-.847,2.225-.965,3.36-.997,1.153.008,2.303.142,3.396.494.048.018.026.091-.026.077h0Z"/>
    </g>
  </g>
</svg>